<svg width="32" height="32" viewBox="0 0 32 32" fill="none" xmlns="http://www.w3.org/2000/svg">
<path d="M0 16.078C0 24.8195 7.21572 32 16.0001 32V0C7.05885 0 0 7.18049 0 16.078Z" fill="#223453"/>
<path d="M16 0V31.8439C24.7844 31.8439 32.0001 24.6634 32.0001 15.922C32.0001 7.18049 24.7844 0 16 0Z" fill="#566988"/>
<path d="M13.0208 24.6634C12.3933 24.6634 11.9227 24.5073 11.4522 24.0391L6.27566 19.3561C5.33448 18.5756 5.33448 17.0147 6.1188 16.0781C6.90311 15.1415 8.47175 15.1415 9.41293 15.922L12.8639 19.0439L22.2757 8.1171C23.06 7.18051 24.4718 7.02442 25.413 7.80491C26.3542 8.58539 26.511 9.99027 25.7267 10.9269L14.7463 23.883C14.4326 24.3512 13.8051 24.6634 13.0208 24.6634C13.1777 24.6634 13.1777 24.6634 13.0208 24.6634Z" fill="white"/>
</svg>
