<svg width="24" height="24" viewBox="0 0 24 24" fill="none" xmlns="http://www.w3.org/2000/svg">
<path d="M20.7184 7.07094C20.391 6.74529 19.9481 6.5625 19.4864 6.5625C19.0247 6.5625 18.5818 6.74529 18.2544 7.07094L11.9807 13.2605L5.79443 7.07094C5.46701 6.74529 5.02409 6.5625 4.56241 6.5625C4.10074 6.5625 3.65782 6.74529 3.3304 7.07094C3.1666 7.23348 3.03659 7.42686 2.94787 7.63992C2.85915 7.85299 2.81348 8.08152 2.81348 8.31234C2.81348 8.54316 2.85915 8.77169 2.94787 8.98475C3.03659 9.19782 3.1666 9.3912 3.3304 9.55374L10.74 16.9672C10.9024 17.1311 11.0957 17.2611 11.3087 17.3499C11.5216 17.4387 11.75 17.4844 11.9807 17.4844C12.2114 17.4844 12.4398 17.4387 12.6528 17.3499C12.8657 17.2611 13.059 17.1311 13.2215 16.9672L20.7184 9.55374C20.8822 9.3912 21.0122 9.19782 21.101 8.98475C21.1897 8.77169 21.2354 8.54316 21.2354 8.31234C21.2354 8.08152 21.1897 7.85299 21.101 7.63992C21.0122 7.42686 20.8822 7.23348 20.7184 7.07094Z" fill="#223453"/>
</svg>
