<svg width="28" height="32" viewBox="0 0 28 32" fill="none" xmlns="http://www.w3.org/2000/svg">
<path d="M15.6308 4.14942C15.9553 4.15011 16.2795 4.17064 16.6015 4.21091V1.35321C16.6015 1.17552 16.5665 0.99956 16.4985 0.835388C16.4305 0.671217 16.3308 0.522046 16.2052 0.396394C16.0795 0.270741 15.9304 0.171068 15.7662 0.103065C15.602 0.0350618 15.4261 6.10349e-05 15.2484 6.10352e-05H7.3102C7.1325 6.10349e-05 6.95655 0.0350618 6.79238 0.103065C6.62821 0.171068 6.47904 0.270741 6.3534 0.396394C6.22775 0.522046 6.12809 0.671217 6.06009 0.835388C5.9921 0.99956 5.95711 1.17552 5.95711 1.35321V4.21098C6.27912 4.17071 6.60329 4.15017 6.92781 4.14949L15.6308 4.14942ZM16.3477 22.2649C16.3475 21.6901 16.472 21.1221 16.7125 20.5999C16.953 20.0778 17.3039 19.6141 17.7409 19.2406C17.4042 19.0733 17.1207 18.8155 16.9222 18.4962C16.7236 18.1769 16.6179 17.8086 16.6168 17.4326V16.0341C16.6175 15.4995 16.8302 14.987 17.2082 14.6089C17.5863 14.2309 18.0989 14.0183 18.6335 14.0178H22.5589V12.0789C22.5589 11.9334 22.5529 11.7894 22.544 11.6461H0.0147571C0.00594383 11.7896 8.55086e-10 11.9334 8.55086e-10 12.0789V25.8737H16.3477V22.2649ZM14.0789 20.2866L10.2221 23.9796C10.1775 24.0223 10.1197 24.0484 10.0582 24.0535C9.99664 24.0586 9.93525 24.0425 9.88422 24.0077C9.8332 23.973 9.79564 23.9218 9.77784 23.8627C9.76003 23.8036 9.76305 23.7402 9.78639 23.6831L11.0946 20.4827C11.1153 20.4321 11.121 20.3766 11.111 20.3228C11.1009 20.269 11.0756 20.2192 11.038 20.1795L8.76255 17.7715C8.64584 17.648 8.58272 17.4834 8.58695 17.3136C8.59119 17.1437 8.66244 16.9824 8.78516 16.8649L12.6418 13.1715C12.6864 13.1288 12.7443 13.1028 12.8058 13.0977C12.8673 13.0925 12.9287 13.1087 12.9798 13.1434C13.0308 13.1782 13.0683 13.2293 13.0861 13.2884C13.1039 13.3475 13.1009 13.411 13.0776 13.4681L11.7694 16.6684C11.7487 16.719 11.743 16.7745 11.753 16.8283C11.7631 16.8821 11.7884 16.9319 11.826 16.9716L14.1014 19.3796C14.2182 19.5031 14.2813 19.6678 14.2771 19.8376C14.2729 20.0075 14.2016 20.1688 14.0789 20.2863V20.2866ZM0.195738 10.4442H22.3628C21.9951 8.93568 21.1319 7.59419 19.9113 6.63451C18.6908 5.67483 17.1835 5.15247 15.6308 5.15106H6.92781C5.37513 5.15245 3.86783 5.6748 2.64725 6.63448C1.42668 7.59417 0.563429 8.93566 0.195738 10.4442ZM8.55086e-10 29.2702C-8.97123e-06 29.6287 0.0705876 29.9836 0.207759 30.3148C0.34493 30.646 0.545989 30.9469 0.799457 31.2004C1.05292 31.4539 1.35384 31.6549 1.68501 31.7921C2.01618 31.9293 2.37114 31.9999 2.7296 31.9999H16.3477V27.0756H8.55086e-10V29.2702Z" fill="#223453"/>
<path d="M26.969 18.2469C27.185 18.2469 27.3921 18.1611 27.5449 18.0084C27.6976 17.8556 27.7834 17.6485 27.7834 17.4325V16.0342C27.7834 15.8182 27.6976 15.6111 27.5449 15.4583C27.3921 15.3056 27.185 15.2198 26.969 15.2198H18.6327C18.5258 15.2198 18.4198 15.2408 18.321 15.2817C18.2221 15.3226 18.1323 15.3826 18.0567 15.4582C17.981 15.5339 17.921 15.6237 17.88 15.7225C17.8391 15.8213 17.818 15.9273 17.818 16.0342V17.4324C17.818 17.5394 17.8391 17.6453 17.88 17.7442C17.921 17.843 17.981 17.9328 18.0566 18.0084C18.1323 18.0841 18.2221 18.1441 18.321 18.185C18.4198 18.2259 18.5257 18.247 18.6327 18.2469H19.8794V19.5227C19.2288 19.6291 18.6372 19.9633 18.2102 20.4656C17.7833 20.968 17.5489 21.6058 17.5488 22.265V30.4279C17.5488 30.8448 17.7145 31.2447 18.0093 31.5395C18.3041 31.8344 18.704 32 19.1209 32H26.2114C26.4178 32 26.6222 31.9593 26.813 31.8803C27.0037 31.8013 27.177 31.6855 27.323 31.5395C27.469 31.3935 27.5848 31.2202 27.6638 31.0295C27.7428 30.8388 27.7834 30.6343 27.7834 30.4279V22.265C27.7833 21.6059 27.5489 20.9682 27.122 20.4659C26.6952 19.9636 26.1036 19.6294 25.4531 19.523V18.2469H26.969ZM24.3593 26.6239L23.5594 27.3897L23.0586 27.8693L22.5578 28.3489L22.0883 28.7985C22.0621 28.8237 22.028 28.8391 21.9917 28.8421C21.9555 28.8451 21.9193 28.8356 21.8892 28.8152C21.8592 28.7947 21.837 28.7645 21.8266 28.7297C21.8161 28.6949 21.8179 28.6575 21.8317 28.6239L22.4645 27.0759L22.5578 26.8475L22.6021 26.7394C22.6142 26.7096 22.6176 26.6769 22.6117 26.6452C22.6057 26.6135 22.5908 26.5842 22.5687 26.5608L22.5578 26.5493L21.9196 25.8739L21.2288 25.1429C21.1601 25.0702 21.1229 24.9732 21.1254 24.8732C21.1279 24.7732 21.1699 24.6782 21.2422 24.609L22.5578 23.3491L23.0586 22.8696L23.5131 22.4344C23.5266 22.4213 23.5423 22.4107 23.5594 22.4029C23.5884 22.3904 23.6205 22.3869 23.6515 22.3926C23.6826 22.3984 23.7112 22.4133 23.7337 22.4354C23.7563 22.4575 23.7717 22.4858 23.7781 22.5168C23.7846 22.5477 23.7816 22.5798 23.7697 22.609L23.5594 23.1235L23.0586 24.3486L22.9994 24.4935C22.9872 24.5233 22.9839 24.556 22.9898 24.5877C22.9957 24.6194 23.0106 24.6487 23.0327 24.6721L23.0586 24.6994L23.5594 25.2294L24.3724 26.0902C24.4411 26.1629 24.4783 26.2598 24.4758 26.3598C24.4733 26.4597 24.4314 26.5547 24.3593 26.6239Z" fill="#223453"/>
</svg>
