<svg width="34" height="35" viewBox="0 0 34 35" fill="none" xmlns="http://www.w3.org/2000/svg">
<path fill-rule="evenodd" clip-rule="evenodd" d="M3.66699 17.4901C3.66699 16.5696 4.41318 15.8234 5.33366 15.8234L24.642 15.8234L20.8218 12.0019C20.221 11.4011 20.1748 10.4557 20.6832 9.80191L20.8218 9.64489C21.4226 9.04409 22.368 8.99787 23.0218 9.50625L23.1788 9.64489L29.8455 16.3116L29.9145 16.3848L30.0064 16.4979L30.1259 16.6833L30.215 16.8712L30.2739 17.0467L30.3223 17.2943L30.3337 17.4901L30.329 17.6155L30.2999 17.8246L30.2508 18.0103L30.1775 18.1954L30.0903 18.3579L29.979 18.518C29.9375 18.5708 29.8929 18.6211 29.8455 18.6686L23.1788 25.3352C22.528 25.9861 21.4727 25.9861 20.8218 25.3352C20.221 24.7344 20.1748 23.7891 20.6832 23.1352L20.8218 22.9782L24.642 19.1567H5.33366C4.41318 19.1567 3.66699 18.4105 3.66699 17.4901Z" fill="#223453"/>
</svg>
