<svg width="34" height="35" viewBox="0 0 34 35" fill="none" xmlns="http://www.w3.org/2000/svg">
<path fill-rule="evenodd" clip-rule="evenodd" d="M30.333 17.5099C30.333 18.4304 29.5868 19.1766 28.6663 19.1766L9.35801 19.1766L13.1782 22.9981C13.779 23.5989 13.8252 24.5443 13.3168 25.1981L13.1782 25.3551C12.5774 25.9559 11.632 26.0021 10.9782 25.4938L10.8212 25.3551L4.1545 18.6884L4.0855 18.6152L3.99357 18.5021L3.87413 18.3167L3.78505 18.1288L3.72608 17.9532L3.67773 17.7057L3.66634 17.5099L3.67099 17.3845L3.70008 17.1754L3.74924 16.9897L3.82246 16.8046L3.90967 16.6421L4.02099 16.482C4.06246 16.4291 4.10705 16.3789 4.1545 16.3314L10.8212 9.66475C11.472 9.01388 12.5273 9.01388 13.1782 9.66475C13.779 10.2656 13.8252 11.2109 13.3168 11.8648L13.1782 12.0218L9.35801 15.8433L28.6663 15.8433C29.5868 15.8433 30.333 16.5895 30.333 17.5099Z" fill="#223453"/>
</svg>
