<svg width="24" height="24" viewBox="0 0 24 24" fill="none" xmlns="http://www.w3.org/2000/svg">
<path fill-rule="evenodd" clip-rule="evenodd" d="M13.01 12.0001L16.7905 8.21944C17.0698 7.94016 17.0698 7.48874 16.7905 7.20946C16.5113 6.93018 16.0599 6.93018 15.7806 7.20946L12 10.9901L8.21942 7.20946C7.94015 6.93018 7.48873 6.93018 7.20946 7.20946C6.93018 7.48874 6.93018 7.94016 7.20946 8.21944L10.99 12.0001L7.20946 15.7807C6.93018 16.06 6.93018 16.5114 7.20946 16.7907C7.34874 16.93 7.53159 17 7.71444 17C7.89729 17 8.08014 16.93 8.21942 16.7907L12 13.0101L15.7806 16.7907C15.9199 16.93 16.1027 17 16.2856 17C16.4684 17 16.6513 16.93 16.7905 16.7907C17.0698 16.5114 17.0698 16.06 16.7905 15.7807L13.01 12.0001Z" fill="#223453"/>
</svg>
