<svg width="20" height="18" viewBox="0 0 20 18" fill="none" xmlns="http://www.w3.org/2000/svg">
<path d="M18.3375 10.4406L19.9789 3.23346C20.0974 2.7131 19.7011 2.21757 19.1663 2.21757H5.52806L5.20979 0.664926C5.13049 0.277924 4.78924 0 4.39337 0H0.833334C0.37309 0 0 0.37231 0 0.83159V1.38598C0 1.84526 0.37309 2.21757 0.833334 2.21757H3.25983L5.69899 14.1175C5.11545 14.4523 4.72222 15.0803 4.72222 15.8002C4.72222 16.8719 5.59278 17.7406 6.66667 17.7406C7.74056 17.7406 8.61111 16.8719 8.61111 15.8002C8.61111 15.2571 8.38726 14.7664 8.02695 14.4142H15.3064C14.9461 14.7664 14.7222 15.2571 14.7222 15.8002C14.7222 16.8719 15.5928 17.7406 16.6667 17.7406C17.7406 17.7406 18.6111 16.8719 18.6111 15.8002C18.6111 15.032 18.1636 14.3681 17.5146 14.0537L17.7062 13.2125C17.8247 12.6922 17.4283 12.1967 16.8936 12.1967H7.57351L7.34625 11.0879H17.5249C17.914 11.0879 18.2513 10.8192 18.3375 10.4406Z" fill="#223453"/>
</svg>
