<svg width="17" height="16" viewBox="0 0 17 16" fill="none" xmlns="http://www.w3.org/2000/svg">
<g clip-path="url(#clip0_738_2068)">
<rect x="0.5" width="16" height="16" rx="8" fill="#959595"/>
<path d="M3.88134 7.98753e-06C3.43702 -0.000958776 2.99689 0.0858421 2.58622 0.255427C2.17554 0.425013 1.8024 0.674043 1.48822 0.988221C1.17404 1.3024 0.925013 1.67554 0.755427 2.08622C0.585842 2.49689 0.499041 2.93702 0.500008 3.38134V12.6187C0.499041 13.063 0.585842 13.5031 0.755427 13.9138C0.925013 14.3245 1.17404 14.6976 1.48822 15.0118C1.8024 15.326 2.17554 15.575 2.58622 15.7446C2.99689 15.9142 3.43702 16.001 3.88134 16H13.1187C13.563 16.001 14.0031 15.9142 14.4138 15.7446C14.8245 15.575 15.1976 15.326 15.5118 15.0118C15.826 14.6976 16.075 14.3245 16.2446 13.9138C16.4142 13.5031 16.501 13.063 16.5 12.6187V3.38134C16.501 2.93702 16.4142 2.49689 16.2446 2.08622C16.075 1.67554 15.826 1.3024 15.5118 0.988221C15.1976 0.674043 14.8245 0.425013 14.4138 0.255427C14.0031 0.0858421 13.563 -0.000958776 13.1187 7.98753e-06H3.88134ZM10.3853 3.23067C10.642 3.23067 10.8987 3.32734 11.092 3.52067L12.978 5.406C13.3653 5.794 13.3653 6.43267 12.978 6.82C12.7898 7.00618 12.5357 7.1106 12.271 7.1106C12.0063 7.1106 11.7522 7.00618 11.564 6.82L11.328 6.58467L7.086 10.828L7.32134 11.064C7.70933 11.4513 7.70933 12.0907 7.32134 12.4773C7.13315 12.6633 6.87924 12.7676 6.61467 12.7676C6.3501 12.7676 6.09619 12.6633 5.908 12.4773L4.02134 10.5927C3.83516 10.4045 3.73074 10.1504 3.73074 9.88566C3.73074 9.62093 3.83516 9.36688 4.02134 9.17867C4.20975 8.99261 4.46388 8.88828 4.72867 8.88828C4.99346 8.88828 5.24759 8.99261 5.436 9.17867L5.672 9.41267L9.914 5.17067L9.67867 4.93467C9.49269 4.74649 9.3884 4.49258 9.3884 4.228C9.3884 3.96343 9.49269 3.70952 9.67867 3.52134C9.872 3.32734 10.1287 3.23067 10.3853 3.23067ZM10.3853 3.892C10.3414 3.89225 10.298 3.90122 10.2576 3.91839C10.2172 3.93555 10.1806 3.96058 10.15 3.992C10.1181 4.02239 10.0926 4.05895 10.0753 4.09946C10.0579 4.13997 10.0489 4.18359 10.0489 4.22767C10.0489 4.27175 10.0579 4.31537 10.0753 4.35588C10.0926 4.39639 10.1181 4.43295 10.15 4.46334L10.3853 4.69934L11.7993 6.11267L12.0353 6.34867C12.0657 6.3806 12.1023 6.40602 12.1428 6.42339C12.1833 6.44076 12.2269 6.44972 12.271 6.44972C12.3151 6.44972 12.3587 6.44076 12.3992 6.42339C12.4397 6.40602 12.4763 6.3806 12.5067 6.34867C12.5386 6.31828 12.564 6.28172 12.5814 6.24121C12.5988 6.2007 12.6077 6.15708 12.6077 6.113C12.6077 6.06892 12.5988 6.02531 12.5814 5.98479C12.564 5.94428 12.5386 5.90772 12.5067 5.87734L10.6213 3.992C10.5906 3.96047 10.5539 3.93538 10.5134 3.91821C10.4729 3.90104 10.4293 3.89213 10.3853 3.892ZM10.3853 5.642L6.14334 9.88533L6.61467 10.3567L10.8567 6.11334L10.3853 5.642ZM4.728 9.54867C4.68392 9.54911 4.64036 9.5583 4.59985 9.57569C4.55934 9.59308 4.52269 9.61834 4.492 9.65C4.46007 9.68039 4.43465 9.71695 4.41728 9.75746C4.39991 9.79797 4.39095 9.84159 4.39095 9.88566C4.39095 9.92974 4.39991 9.97336 4.41728 10.0139C4.43465 10.0544 4.46007 10.0909 4.492 10.1213L6.37867 12.0067C6.40906 12.0386 6.44562 12.064 6.48613 12.0814C6.52664 12.0988 6.57026 12.1077 6.61434 12.1077C6.65841 12.1077 6.70203 12.0988 6.74254 12.0814C6.78306 12.064 6.81961 12.0386 6.85 12.0067C6.88193 11.9763 6.90735 11.9397 6.92472 11.8992C6.94209 11.8587 6.95105 11.8151 6.95105 11.771C6.95105 11.7269 6.94209 11.6833 6.92472 11.6428C6.90735 11.6023 6.88193 11.5657 6.85 11.5353L6.61467 11.2993L6.60534 11.31L5.42534 10.1313L5.19 9.896L5.19934 9.88533L4.96334 9.65C4.93284 9.61824 4.89632 9.59287 4.85592 9.57536C4.81552 9.55784 4.77203 9.54854 4.728 9.548V9.54867Z" fill="#EEDDE7"/>
</g>
<defs>
<clipPath id="clip0_738_2068">
<rect x="0.5" width="16" height="16" rx="8" fill="white"/>
</clipPath>
</defs>
</svg>
