<svg width="101" height="20" viewBox="0 0 101 20" fill="none" xmlns="http://www.w3.org/2000/svg">
<path d="M15.4325 11.9335C15.2159 12.1418 15.1159 12.4493 15.1667 12.7418L15.9075 16.8418C15.9667 17.1918 15.825 17.541 15.5325 17.7418C15.2492 17.9502 14.8742 17.9752 14.5575 17.8085L10.8667 15.8835C10.7325 15.8168 10.5909 15.7743 10.45 15.7743H10.2242C10.1409 15.7827 10.0667 15.8168 9.99921 15.8493L6.30754 17.7835C6.12421 17.8752 5.91587 17.9085 5.71588 17.8752C5.21588 17.7752 4.89171 17.3077 4.97421 16.816L5.71588 12.716C5.76588 12.4168 5.66587 12.1168 5.45004 11.9002L2.44088 8.9835C2.19088 8.7335 2.09921 8.37433 2.21671 8.04183C2.32504 7.716 2.60754 7.47433 2.95754 7.41683L7.09921 6.816C7.41587 6.78266 7.69088 6.59183 7.83254 6.3085L9.65754 2.56683C9.69921 2.4835 9.75754 2.40766 9.82504 2.34183L9.89921 2.2835C9.93254 2.241 9.98254 2.2085 10.0334 2.17516L10.1242 2.14183L10.2659 2.0835H10.6167C10.9334 2.11683 11.2084 2.30766 11.35 2.58266L13.1992 6.3085C13.3325 6.5835 13.5909 6.76683 13.8909 6.816L18.0325 7.41683C18.3825 7.46683 18.675 7.7085 18.7909 8.04183C18.8992 8.37433 18.8075 8.74183 18.5492 8.9835L15.4325 11.9335Z" fill="#FF82AE"/>
<path d="M35.4325 11.9335C35.2159 12.1418 35.1159 12.4493 35.1667 12.7418L35.9075 16.8418C35.9667 17.1918 35.825 17.541 35.5325 17.7418C35.2492 17.9502 34.8742 17.9752 34.5575 17.8085L30.8667 15.8835C30.7325 15.8168 30.5909 15.7743 30.45 15.7743H30.2242C30.1409 15.7827 30.0667 15.8168 29.9992 15.8493L26.3075 17.7835C26.1242 17.8752 25.9159 17.9085 25.7159 17.8752C25.2159 17.7752 24.8917 17.3077 24.9742 16.816L25.7159 12.716C25.7659 12.4168 25.6659 12.1168 25.45 11.9002L22.4409 8.9835C22.1909 8.7335 22.0992 8.37433 22.2167 8.04183C22.325 7.716 22.6075 7.47433 22.9575 7.41683L27.0992 6.816C27.4159 6.78266 27.6909 6.59183 27.8325 6.3085L29.6575 2.56683C29.6992 2.4835 29.7575 2.40766 29.825 2.34183L29.8992 2.2835C29.9325 2.241 29.9825 2.2085 30.0334 2.17516L30.1242 2.14183L30.2659 2.0835H30.6167C30.9334 2.11683 31.2084 2.30766 31.35 2.58266L33.1992 6.3085C33.3325 6.5835 33.5909 6.76683 33.8909 6.816L38.0325 7.41683C38.3825 7.46683 38.675 7.7085 38.7909 8.04183C38.8992 8.37433 38.8075 8.74183 38.5492 8.9835L35.4325 11.9335Z" fill="#FF82AE"/>
<path d="M55.4316 11.934C55.2149 12.1423 55.1149 12.4498 55.1657 12.7423L55.9066 16.8423C55.9657 17.1923 55.8241 17.5415 55.5316 17.7423C55.2482 17.9507 54.8732 17.9757 54.5566 17.809L50.8657 15.884C50.7316 15.8173 50.5899 15.7748 50.4491 15.7748H50.2232C50.1399 15.7832 50.0657 15.8173 49.9982 15.8498L46.3066 17.784C46.1232 17.8757 45.9149 17.909 45.7149 17.8757C45.2149 17.7757 44.8907 17.3082 44.9732 16.8165L45.7149 12.7165C45.7649 12.4173 45.6649 12.1173 45.4491 11.9007L42.4399 8.98398C42.1899 8.73398 42.0982 8.37482 42.2157 8.04232C42.3241 7.71648 42.6066 7.47482 42.9566 7.41732L47.0982 6.81648C47.4149 6.78315 47.6899 6.59232 47.8316 6.30898L49.6566 2.56732C49.6982 2.48398 49.7566 2.40815 49.8241 2.34232L49.8982 2.28398C49.9316 2.24148 49.9816 2.20898 50.0324 2.17565L50.1232 2.14232L50.2649 2.08398H50.6157C50.9324 2.11732 51.2074 2.30815 51.3491 2.58315L53.1982 6.30898C53.3316 6.58398 53.5899 6.76732 53.8899 6.81648L58.0316 7.41732C58.3816 7.46732 58.6741 7.70898 58.7899 8.04232C58.8982 8.37482 58.8066 8.74232 58.5482 8.98398L55.4316 11.934Z" fill="#FF82AE"/>
<path d="M75.4316 11.934C75.2149 12.1423 75.1149 12.4498 75.1657 12.7423L75.9066 16.8423C75.9657 17.1923 75.8241 17.5415 75.5316 17.7423C75.2482 17.9507 74.8732 17.9757 74.5566 17.809L70.8657 15.884C70.7316 15.8173 70.5899 15.7748 70.4491 15.7748H70.2232C70.1399 15.7832 70.0657 15.8173 69.9982 15.8498L66.3066 17.784C66.1232 17.8757 65.9149 17.909 65.7149 17.8757C65.2149 17.7757 64.8907 17.3082 64.9732 16.8165L65.7149 12.7165C65.7649 12.4173 65.6649 12.1173 65.4491 11.9007L62.4399 8.98398C62.1899 8.73398 62.0982 8.37482 62.2157 8.04232C62.3241 7.71648 62.6066 7.47482 62.9566 7.41732L67.0982 6.81648C67.4149 6.78315 67.6899 6.59232 67.8316 6.30898L69.6566 2.56732C69.6982 2.48398 69.7566 2.40815 69.8241 2.34232L69.8982 2.28398C69.9316 2.24148 69.9816 2.20898 70.0324 2.17565L70.1232 2.14232L70.2649 2.08398H70.6157C70.9324 2.11732 71.2074 2.30815 71.3491 2.58315L73.1982 6.30898C73.3316 6.58398 73.5899 6.76732 73.8899 6.81648L78.0316 7.41732C78.3816 7.46732 78.6741 7.70898 78.7899 8.04232C78.8982 8.37482 78.8066 8.74232 78.5482 8.98398L75.4316 11.934Z" fill="#FF82AE"/>
<path d="M95.4316 11.934C95.2149 12.1423 95.1149 12.4498 95.1657 12.7423L95.9066 16.8423C95.9657 17.1923 95.8241 17.5415 95.5316 17.7423C95.2482 17.9507 94.8732 17.9757 94.5566 17.809L90.8657 15.884C90.7316 15.8173 90.5899 15.7748 90.4491 15.7748H90.2232C90.1399 15.7832 90.0657 15.8173 89.9982 15.8498L86.3066 17.784C86.1232 17.8757 85.9149 17.909 85.7149 17.8757C85.2149 17.7757 84.8907 17.3082 84.9732 16.8165L85.7149 12.7165C85.7649 12.4173 85.6649 12.1173 85.4491 11.9007L82.4399 8.98398C82.1899 8.73398 82.0982 8.37482 82.2157 8.04232C82.3241 7.71648 82.6066 7.47482 82.9566 7.41732L87.0982 6.81648C87.4149 6.78315 87.6899 6.59232 87.8316 6.30898L89.6566 2.56732C89.6982 2.48398 89.7566 2.40815 89.8241 2.34232L89.8982 2.28398C89.9316 2.24148 89.9816 2.20898 90.0324 2.17565L90.1232 2.14232L90.2649 2.08398H90.6157C90.9324 2.11732 91.2074 2.30815 91.3491 2.58315L93.1982 6.30898C93.3316 6.58398 93.5899 6.76732 93.8899 6.81648L98.0316 7.41732C98.3816 7.46732 98.6741 7.70898 98.7899 8.04232C98.8982 8.37482 98.8066 8.74232 98.5482 8.98398L95.4316 11.934Z" fill="#FF82AE"/>
</svg>
