<svg width="28" height="26" viewBox="0 0 28 26" fill="none" xmlns="http://www.w3.org/2000/svg">
<g clip-path="url(#clip0_901_6445)">
<path d="M25.6816 15.1897L27.9706 5.13909C28.1359 4.41341 27.5831 3.72238 26.8374 3.72238H7.81824L7.37441 1.55715C7.26381 1.01746 6.78793 0.629883 6.23587 0.629883H1.27125C0.629421 0.629883 0.109131 1.14908 0.109131 1.78957V2.5627C0.109131 3.20318 0.629421 3.72238 1.27125 3.72238H4.6551L8.05662 20.3173C7.24285 20.7843 6.69447 21.6599 6.69447 22.6639C6.69447 24.1584 7.9085 25.3699 9.40608 25.3699C10.9037 25.3699 12.1177 24.1584 12.1177 22.6639C12.1177 21.9066 11.8055 21.2223 11.303 20.7311H21.4545C20.9521 21.2223 20.6399 21.9066 20.6399 22.6639C20.6399 24.1584 21.8539 25.3699 23.3515 25.3699C24.8491 25.3699 26.0631 24.1584 26.0631 22.6639C26.0631 21.5926 25.4391 20.6668 24.534 20.2284L24.8012 19.0553C24.9664 18.3297 24.4137 17.6386 23.6679 17.6386H10.6707L10.3538 16.0924H24.5483C25.091 16.0924 25.5613 15.7177 25.6816 15.1897Z" fill="#223453"/>
</g>
<defs>
<clipPath id="clip0_901_6445">
<rect width="27.8908" height="24.74" fill="white" transform="translate(0.109131 0.629883)"/>
</clipPath>
</defs>
</svg>
