<svg width="1512" height="119" viewBox="0 0 1512 119" fill="none" xmlns="http://www.w3.org/2000/svg">
<g clip-path="url(#clip0_942_1878)">
<path d="M1512 29.5691L1507.67 29.0391L1502.35 28.3891L1495.03 27.4991L1490.64 26.9591L1485.77 26.3591L1480.43 25.7091L1474.65 25.0091L1468.39 24.2591L1461.72 23.4491L1454.6 22.5991L1447.07 21.7091L1439.1 20.7691L1434.98 20.2891L1430.74 19.7991L1426.41 19.2991L1421.98 18.7891L1417.45 18.2791L1412.83 17.7591L1408.11 17.2291L1403.31 16.6891L1398.4 16.1591L1393.4 15.6091L1388.31 15.0691L1383.13 14.5191L1377.88 13.9691L1372.52 13.4091L1367.08 12.8591L1361.55 12.2991L1355.94 11.7491L1350.24 11.1991L1344.48 10.6491L1338.62 10.1091L1332.68 9.5691L1326.66 9.0291L1320.57 8.4991L1314.41 7.9791L1308.16 7.4591L1301.84 6.9591L1295.44 6.4591L1288.97 5.9791L1282.44 5.5091L1275.84 5.0491L1269.16 4.5991L1262.41 4.1691L1255.59 3.7591L1248.72 3.3591L1241.78 2.9791L1234.77 2.6191L1227.7 2.2791L1220.58 1.9591L1213.38 1.6591L1206.13 1.3891L1198.83 1.1391L1191.47 0.909102L1184.03 0.709102L1176.55 0.529102L1169.02 0.379102L1161.44 0.259102L1153.8 0.169102L1146.11 0.109102L1138.37 0.0791016H1130.59C1127.99 0.0791016 1125.38 0.0891016 1122.76 0.109102L1114.87 0.169102L1106.95 0.259102L1098.98 0.389102L1094.98 0.459102L1090.97 0.549102L1086.94 0.639102L1082.91 0.739102L1078.87 0.849102L1074.81 0.969102L1070.76 1.0891L1066.68 1.2291L1062.6 1.3691L1058.51 1.5191L1054.4 1.6791L1050.29 1.8491L1046.17 2.0191L1042.05 2.2091L1037.91 2.3991L1033.76 2.6091L1029.6 2.8191L1025.44 3.0291L1021.26 3.2591L1017.08 3.4991L1012.89 3.7391L1008.7 3.9891L1004.49 4.2591L1000.28 4.5191L996.06 4.7991L991.832 5.0891L987.593 5.3791L983.355 5.6791L979.106 5.9891L974.847 6.3091L970.589 6.6291L966.32 6.9691L962.042 7.3091L957.773 7.6491L953.475 8.0091L949.176 8.3691L944.897 8.7391L940.569 9.1191L936.28 9.4991L931.942 9.8891L927.623 10.2891L923.294 10.6991L918.956 11.1091L914.617 11.5291L910.289 11.9491L905.93 12.3791L901.582 12.8191L897.223 13.2591L892.855 13.7091L888.496 14.1591L884.127 14.6191L879.749 15.0891L875.37 15.5591L870.992 16.0291L866.613 16.5091L862.225 16.9991L857.826 17.4891L853.438 17.9791L849.039 18.4791L844.64 18.9791L840.232 19.4791L835.833 19.9891L831.425 20.5091L827.016 21.0191L822.598 21.5391L818.189 22.0591L813.771 22.5891L809.352 23.1191L804.934 23.6491L800.515 24.1791L796.097 24.7091L791.668 25.2491L787.249 25.7791L782.821 26.3191L778.392 26.8591L773.964 27.3991L769.535 27.9491L765.107 28.4891L760.678 29.0291L756.25 29.5691L751.831 30.1091L747.403 30.6491L742.974 31.1891L738.546 31.7291L734.117 32.2791L729.688 32.8191L725.26 33.3491L720.841 33.8891L716.413 34.4291L711.994 34.9591L707.576 35.4891L703.157 36.0191L698.739 36.5491L694.32 37.0791L689.912 37.5991L685.493 38.1191L681.085 38.6291L676.676 39.1491L672.277 39.6491L667.869 40.1591L663.47 40.6591L659.072 41.1591L654.683 41.6491L650.285 42.1391L645.896 42.6291L641.518 43.1091L637.139 43.5791L632.76 44.0491L628.382 44.5191L624.013 44.9791L619.655 45.4291L615.286 45.8791L610.928 46.3191L606.579 46.7591L602.231 47.1891L597.892 47.6091L593.553 48.0291L589.215 48.4391L584.886 48.8491L580.568 49.2391L576.249 49.6391L571.941 50.0191L567.632 50.3991L563.333 50.7691L559.035 51.1291L554.746 51.4891L550.468 51.8291L546.189 52.1691L541.92 52.5091L537.662 52.8291L533.403 53.1491L529.155 53.4591L524.916 53.7591L520.677 54.0491L516.449 54.3391L512.23 54.6091L508.022 54.8791L503.813 55.1391L499.614 55.3991L495.426 55.6391L491.247 55.8791L487.069 56.0991L482.91 56.3191L478.761 56.5291L474.603 56.7391L470.464 56.9291L466.335 57.1091L462.217 57.2891L458.108 57.4591L454.02 57.6191L449.911 57.7691L445.832 57.9091L441.774 58.0491L437.695 58.1691L433.636 58.2891L429.598 58.3991L425.569 58.4991L421.54 58.5891L417.532 58.6791L413.533 58.7491L405.555 58.8791L397.638 58.9691L389.771 59.0291L381.923 59.0591H374.136L366.398 59.0291L358.711 58.9691L351.073 58.8791L343.486 58.7591L335.958 58.6091L328.481 58.4291L321.063 58.2291L313.686 57.9991L306.378 57.7491L299.131 57.4791L291.933 57.1791L284.825 56.8591L277.738 56.5191L270.73 56.1591L263.812 55.7791L256.915 55.3791L250.097 54.9691L243.349 54.5391L236.671 54.0891L230.094 53.6391L223.536 53.1591L217.088 52.6791L210.67 52.1791L204.352 51.6791L198.104 51.1591L191.936 50.6391L185.848 50.1091L179.83 49.5791L173.892 49.0291L168.034 48.4891L162.266 47.9391L156.568 47.3891L150.96 46.8391L145.431 46.2791L139.993 45.7291L134.635 45.1691L129.377 44.6191L124.198 44.0691L119.11 43.5291L114.112 42.9891L109.203 42.4491L104.395 41.9091L99.677 41.3891L95.059 40.8591L90.531 40.3491L86.102 39.8391L81.773 39.3391L77.534 38.8491L73.405 38.3691L65.448 37.4291L57.91 36.5391L50.792 35.6891L44.114 34.8791L37.866 34.1291L32.078 33.4291L26.74 32.7791L21.872 32.1791L17.483 31.6491L10.156 30.7491L4.83802 30.0991L0.499023 29.5691L0.509023 32.0901L0.499023 38.7821V43.2531L0.509023 48.2341L0.499023 53.5651V59.0761V64.5771L0.509023 69.9081L0.499023 74.8891V79.3601L0.509023 86.0421L0.499023 88.5831L4.83802 89.1131L10.156 89.7631L17.483 90.6631L21.872 91.1931L26.74 91.7931L32.078 92.4331L37.866 93.1331L44.114 93.8831L50.792 94.6931L57.91 95.5431L65.448 96.4331L73.405 97.3731L77.534 97.8531L81.772 98.3431L86.101 98.8431L90.53 99.3531L95.058 99.8631L99.676 100.394L104.394 100.914L109.202 101.454L114.111 101.994L119.109 102.534L124.197 103.074L129.376 103.624L134.634 104.175L139.992 104.735L145.43 105.285L150.959 105.845L156.567 106.395L162.265 106.945L168.033 107.495L173.891 108.036L179.829 108.586L185.847 109.116L191.935 109.646L198.103 110.166L204.351 110.686L210.669 111.186L217.087 111.686L223.535 112.167L230.093 112.647L236.67 113.097L243.348 113.547L250.096 113.977L256.914 114.387L263.811 114.787L270.729 115.167L277.737 115.527L284.824 115.868L291.932 116.188L299.13 116.488L306.377 116.758L313.685 117.008L321.062 117.238L328.48 117.438L335.957 117.618L343.485 117.768L351.072 117.888L358.71 117.978L366.397 118.038L374.135 118.068H381.922L389.77 118.038L397.637 117.978L405.554 117.888L413.532 117.758L417.531 117.688L421.539 117.598L425.568 117.508L429.597 117.408L433.635 117.298L437.694 117.178L441.773 117.058L445.831 116.918L449.91 116.778L454.019 116.628L458.107 116.468L462.216 116.298L466.334 116.118L470.463 115.938L474.602 115.748L478.76 115.537L482.909 115.327L487.068 115.107L491.246 114.887L495.425 114.647L499.613 114.407L503.812 114.147L508.021 113.887L512.229 113.617L516.448 113.347L520.676 113.057L524.915 112.767L529.154 112.467L533.402 112.157L537.661 111.837L541.919 111.516L546.188 111.176L550.467 110.836L554.745 110.496L559.034 110.136L563.332 109.776L567.631 109.406L571.94 109.026L576.248 108.646L580.567 108.246L584.885 107.856L589.214 107.445L593.552 107.035L597.891 106.615L602.23 106.195L606.578 105.765L610.927 105.325L615.285 104.885L619.654 104.435L624.012 103.985L628.381 103.524L632.759 103.054L637.138 102.584L641.517 102.114L645.895 101.634L650.284 101.144L654.682 100.654L659.071 100.164L663.469 99.6631L667.868 99.1631L672.276 98.6531L676.675 98.1531L681.083 97.6331L685.492 97.1231L689.911 96.6031L694.319 96.0831L698.738 95.5531L703.156 95.0231L707.575 94.4931L711.993 93.9631L716.412 93.4331L720.84 92.8931L725.259 92.3531L729.687 91.8231L734.116 91.2831L738.544 90.7331L742.973 90.1931L747.402 89.6531L751.83 89.1131L756.249 88.5631L760.677 88.0231L765.106 87.4831L769.534 86.9431L773.963 86.3931L778.391 85.8531L782.82 85.3131L787.248 84.7731L791.667 84.2431L796.095 83.7031L800.514 83.1731L804.933 82.6431L809.351 82.1131L813.77 81.5831L818.188 81.0531L822.597 80.5331L827.015 80.0131L831.424 79.5031L835.832 78.9831L840.231 78.4731L844.639 77.9731L849.038 77.4731L853.437 76.9731L857.825 76.4831L862.224 75.9931L866.612 75.5031L870.991 75.0231L875.369 74.5531L879.748 74.0831L884.126 73.6131L888.495 73.1531L892.854 72.7031L897.222 72.2531L901.581 71.8131L905.929 71.3731L910.288 70.9431L914.616 70.5231L918.955 70.1031L923.293 69.6931L927.622 69.2831L931.941 68.8831L936.279 68.4931L940.568 68.1131L944.896 67.7331L949.175 67.3631L953.473 67.0031L957.772 66.6431L962.041 66.3031L966.319 65.9631L970.588 65.6231L974.846 65.3031L979.105 64.9831L983.354 64.6731L987.592 64.3731L991.831 64.0831L996.059 63.7931L1000.28 63.5131L1004.49 63.2531L1008.7 62.9831L1012.89 62.7331L1017.08 62.4931L1021.26 62.2531L1025.44 62.0231L1029.6 61.8131L1033.76 61.6031L1037.91 61.3931L1042.05 61.2031L1046.17 61.0131L1050.29 60.8431L1054.4 60.6731L1058.51 60.5131L1062.6 60.3631L1066.68 60.2231L1070.76 60.0831L1074.81 59.9631L1078.87 59.8431L1082.91 59.7331L1086.94 59.6331L1090.97 59.5431L1094.98 59.4531L1098.98 59.3831L1106.95 59.2531L1114.87 59.1631L1122.76 59.1031L1130.59 59.0731H1138.37L1146.11 59.1031L1153.8 59.1631L1161.44 59.2531L1169.02 59.3731L1176.55 59.5231L1184.03 59.7031L1191.47 59.9031L1198.83 60.1331L1206.13 60.3831L1213.38 60.6531L1220.58 60.9531L1227.7 61.2731L1234.77 61.6131L1241.78 61.9731L1248.72 62.3531L1255.59 62.7531L1262.41 63.1631L1269.16 63.5931L1275.84 64.0431L1282.44 64.5031L1288.97 64.9731L1295.44 65.4531L1301.84 65.9531L1308.16 66.4531L1314.41 66.9731L1320.57 67.4931L1326.66 68.0231L1332.68 68.5631L1338.62 69.1031L1344.48 69.6431L1350.24 70.1931L1355.94 70.7431L1361.55 71.2931L1367.08 71.8531L1372.52 72.4031L1377.88 72.9631L1383.13 73.5131L1388.31 74.0631L1393.4 74.6031L1398.4 75.1531L1403.31 75.6831L1408.11 76.2231L1412.83 76.7531L1417.45 77.2731L1421.98 77.7831L1426.41 78.2931L1430.74 78.7931L1434.98 79.2831L1439.1 79.7631L1447.07 80.7031L1454.6 81.5931L1461.72 82.4431L1468.39 83.2531L1474.65 84.0031L1480.43 84.7031L1485.77 85.3631L1490.64 85.9631L1495.03 86.5031L1502.35 87.3931L1507.67 88.0431L1512 88.5831V86.0421V79.3601V74.8891V69.9081V64.5771V59.0761V53.5651V48.2341V43.2531V38.7821V32.0901L1512 29.5691Z" fill="#FFBCD4"/>
<path d="M1512 118.071H0V59.1069H1512V118.071Z" fill="#FFBCD4"/>
</g>
<defs>
<clipPath id="clip0_942_1878">
<rect width="1512" height="119" fill="white"/>
</clipPath>
</defs>
</svg>
