<svg xmlns="http://www.w3.org/2000/svg" width="1512" height="119" fill="#ff82ae" xmlns:v="https://vecta.io/nano"><path d="M1512 29.569l-4.33-.53-5.32-.65-7.32-.89-4.39-.54-4.87-.6-5.34-.65-5.78-.7-6.26-.75-6.67-.81-7.12-.85-7.53-.89-7.97-.94-4.12-.48-4.24-.49-4.33-.5-4.43-.51-4.53-.51-4.62-.52-4.72-.53-4.8-.54-4.91-.53-5-.55-5.09-.54-5.18-.55-5.25-.55-5.36-.56-5.44-.55-5.53-.56-5.61-.55-5.7-.55-5.76-.55-5.86-.54-5.94-.54-6.02-.54-6.09-.53-6.16-.52-6.25-.52-6.32-.5-6.4-.5-6.47-.48-6.53-.47-6.6-.46-6.68-.45-6.75-.43-6.82-.41-6.87-.4-6.94-.38-7.01-.36-7.07-.34-7.12-.32-7.2-.3-7.25-.27-7.3-.25-7.36-.23-7.44-.2-7.48-.18-7.53-.15-7.58-.12-7.64-.09-7.69-.06-7.74-.03h-7.78c-2.6 0-5.21.01-7.83.03l-7.89.06-7.92.09-7.97.13-4 .07-4.01.09-4.03.09-4.03.1-4.04.11-4.06.12-4.05.12-4.08.14-4.08.14-4.09.15-4.11.16-4.11.17-4.12.17-4.12.19-4.14.19-4.15.21-4.16.21-4.16.21-4.18.23-4.18.24-4.19.24-4.19.25-4.21.27-4.21.26-4.22.28-4.228.29-4.239.29-4.238.3-4.249.31-4.259.32-4.258.32-4.269.34-4.278.34-4.269.34-4.298.36-4.299.36-4.279.37-4.328.38-4.289.38-4.338.39-4.319.4-4.329.41-4.338.41-4.339.42-4.328.42-4.359.43-4.348.44-4.359.44-4.368.45-4.359.45-4.369.46-4.378.47-4.379.47-4.378.47-4.379.48-4.388.49-4.399.49-4.388.49-4.399.5-4.399.5-4.408.5-4.399.51-4.408.52-4.409.51-4.418.52-4.409.52-4.418.53-4.419.53-4.418.53-4.419.53-4.418.53-4.429.54-4.419.53-4.428.54-4.429.54-4.428.54-4.429.55-4.428.54-4.429.54-4.428.54-4.419.54-4.428.54-4.429.54-4.428.54-4.429.55-4.429.54-4.428.53-4.419.54-4.428.54-4.419.53-4.418.53-4.419.53-4.418.53-4.419.53-4.408.52-4.419.52-4.408.51-4.409.52-4.399.5-4.408.51-4.399.5-4.398.5-4.389.49-4.398.49-4.389.49-4.378.48-4.379.47-4.379.47-4.378.47-4.369.46-4.358.45-4.369.45-4.358.44-4.349.44-4.348.43-4.339.42-4.339.42-4.338.41-4.329.41-4.318.39-4.319.4-4.308.38-4.309.38-4.299.37-4.298.36-4.289.36-4.278.34-4.279.34-4.269.34-4.258.32-4.259.32-4.248.31-4.239.3-4.239.29-4.228.29-4.219.27-4.208.27-4.209.26-4.199.26-4.188.24-4.179.24-4.178.22-4.159.22-4.149.21-4.158.21-4.139.19-4.129.18-4.118.18-4.109.17-4.088.16-4.109.15-4.079.14-4.058.14-4.079.12-4.059.12-4.038.11-4.029.1-4.029.09-4.008.09-3.999.07-7.978.13-7.917.09-7.867.06-7.848.03h-7.787l-7.738-.03-7.687-.06-7.638-.09-7.587-.12-7.528-.15-7.477-.18-7.418-.2-7.377-.23-7.308-.25-7.247-.27-7.198-.3-7.108-.32-7.087-.34-7.008-.36-6.918-.38-6.897-.4-6.818-.41-6.748-.43-6.678-.45-6.577-.45-6.558-.48-6.448-.48-6.418-.5-6.318-.5-6.248-.52-6.168-.52-6.088-.53-6.018-.53-5.938-.55-5.858-.54-5.768-.55-5.698-.55-5.608-.55-5.529-.56-5.438-.55-5.358-.56-5.258-.55-5.179-.55-5.088-.54-4.998-.54-4.909-.54-4.808-.54-4.718-.52-4.618-.53-4.528-.51-4.429-.51-4.329-.5-4.239-.49-4.129-.48-7.957-.94-7.538-.89-7.118-.85-6.678-.81-6.248-.75-5.788-.7-5.338-.65-4.868-.6-4.389-.53-7.327-.9-5.318-.65-4.339-.53.01 2.521-.01 6.692v4.471l.01 4.981-.01 5.331v5.511 5.501l.01 5.331-.01 4.981v4.471l.01 6.682-.01 2.541 4.339.53 5.318.65 7.327.9 4.389.53 4.868.6 5.338.64 5.788.7 6.248.75 6.678.81 7.118.85 7.538.89 7.957.94 4.129.48 4.238.49 4.329.5 4.429.51 4.528.51 4.618.531 4.718.52 4.808.54 4.909.54 4.998.54 5.088.54 5.179.55 5.258.551 5.358.56 5.438.55 5.529.56 5.608.55 5.698.55 5.768.55 5.858.541 5.938.55 6.018.53 6.088.53 6.168.52 6.248.52 6.318.5 6.418.5 6.448.481 6.558.48 6.577.45 6.678.45 6.748.43 6.818.41 6.897.4 6.918.38 7.008.36 7.087.341 7.108.32 7.198.3 7.247.27 7.308.25 7.377.23 7.418.2 7.477.18 7.528.15 7.587.12 7.638.09 7.687.06 7.738.03h7.787l7.848-.03 7.867-.06 7.917-.09 7.978-.13 3.999-.07 4.008-.09 4.029-.09 4.029-.1 4.038-.11 4.059-.12 4.079-.12 4.058-.14 4.079-.14 4.109-.15 4.088-.16 4.109-.17 4.118-.18 4.129-.18 4.139-.19 4.158-.211 4.149-.21 4.159-.22 4.178-.22 4.179-.24 4.188-.24 4.199-.26 4.209-.26 4.208-.27 4.219-.27 4.228-.29 4.239-.29 4.239-.3 4.248-.31 4.259-.32 4.258-.321 4.269-.34 4.279-.34 4.278-.34 4.289-.36 4.298-.36 4.299-.37 4.309-.38 4.308-.38 4.319-.4 4.318-.39 4.329-.411 4.338-.41 4.339-.42 4.339-.42 4.348-.43 4.349-.44 4.358-.44 4.369-.45 4.358-.45 4.369-.461 4.378-.47 4.379-.47 4.379-.47 4.378-.48 4.389-.49 4.398-.49 4.389-.49 4.398-.501 4.399-.5 4.408-.51 4.399-.5 4.408-.52 4.409-.51 4.419-.52 4.408-.52 4.419-.53 4.418-.53 4.419-.53 4.418-.53 4.419-.53 4.428-.54 4.419-.54 4.428-.53 4.429-.54 4.428-.55 4.429-.54 4.429-.54 4.428-.54 4.419-.55 4.428-.54 4.429-.54 4.428-.54 4.429-.55 4.428-.54 4.429-.54 4.428-.54 4.419-.53 4.428-.54 4.419-.53 4.419-.53 4.418-.53 4.419-.53 4.418-.53 4.409-.52 4.418-.52 4.409-.51 4.408-.52 4.399-.51 4.408-.5 4.399-.5 4.399-.5 4.388-.49 4.399-.49 4.388-.49 4.379-.48 4.378-.47 4.379-.47 4.378-.47 4.369-.46 4.359-.45 4.368-.45 4.359-.44 4.348-.44 4.359-.43 4.328-.42 4.339-.42 4.338-.41 4.329-.41 4.319-.4 4.338-.39 4.289-.38 4.328-.38 4.279-.37 4.298-.36 4.299-.36 4.269-.34 4.278-.34 4.269-.34 4.258-.32 4.259-.32 4.249-.31 4.238-.3 4.239-.29 4.228-.29 4.22-.28 4.21-.26 4.21-.27 4.19-.25 4.19-.24 4.18-.24 4.18-.23 4.16-.21 4.16-.21 4.15-.21 4.14-.19 4.12-.19 4.12-.17 4.11-.17 4.11-.16 4.09-.15 4.08-.14 4.08-.14 4.05-.12 4.06-.12 4.04-.11 4.03-.1 4.03-.09 4.01-.09 4-.07 7.97-.13 7.92-.09 7.89-.06 7.83-.03h7.78l7.74.03 7.69.06 7.64.09 7.58.12 7.53.15 7.48.18 7.44.2 7.36.23 7.3.25 7.25.27 7.2.3 7.12.32 7.07.34 7.01.36 6.94.38 6.87.4 6.82.41 6.75.43 6.68.45 6.6.46 6.53.47 6.47.48 6.4.5 6.32.5 6.25.52 6.16.52 6.09.53 6.02.54 5.94.54 5.86.54 5.76.55 5.7.55 5.61.55 5.53.56 5.44.55 5.36.56 5.25.55 5.18.55 5.09.54 5 .55 4.91.53 4.8.54 4.72.53 4.62.52 4.53.51 4.43.51 4.33.5 4.24.49 4.12.48 7.97.94 7.53.89 7.12.85 6.67.81 6.26.75 5.78.7 5.34.66 4.87.6 4.39.54 7.32.89 5.32.65 4.33.54v-2.541-6.682-4.471-4.981-5.331-5.501-5.511-5.331-4.981-4.471-6.692-2.521z"/><path d="M1512 118.071H0V59.107h1512z"/></svg>